<?xml version="1.0" encoding="UTF-8" standalone="no"?><!DOCTYPE svg PUBLIC "-//W3C//DTD SVG 1.1//EN" "http://www.w3.org/Graphics/SVG/1.1/DTD/svg11.dtd"><svg width="100%" height="100%" viewBox="0 0 512 512" version="1.1" xmlns="http://www.w3.org/2000/svg" xmlns:xlink="http://www.w3.org/1999/xlink" xml:space="preserve" xmlns:serif="http://www.serif.com/" style="fill-rule:evenodd;clip-rule:evenodd;stroke-linejoin:round;stroke-miterlimit:2;"><path d="M224.991,372.601c-0,-12.043 -0,-24.085 -0.927,-36.127c0.927,-5.558 0.927,-11.116 1.853,-16.674c0,-1.852 -0.926,-3.705 -0.926,-5.558l0.926,-56.505l0,-30.569c-0.926,-10.189 0,-20.379 -0.926,-31.495c-0,-5.557 0.926,-12.042 -0.927,-17.6l-1.852,-0.926c-0,-0.926 -0,-1.853 0.926,-2.779l0,-0.926l0.926,-0c0.927,-6.484 0.927,-11.116 -0.926,-13.895l-0.926,1.853c-0,-2.779 -0,-3.706 0.926,-4.632l0.926,-3.705c-0.926,-2.779 0,-5.558 -0.926,-8.337c0,-0.926 -0.926,-1.853 -0.926,-2.779c-1.853,-0.926 -0.926,-1.853 -0.926,-3.705c-0.927,-2.779 -0,-5.558 -0.927,-7.411l0,-8.337c-0.926,-0.926 -1.852,-1.852 -2.779,-3.705l-0.926,-0.926l-6.484,-4.632c-0.927,-0 -1.853,-0.926 -2.779,-0.926c-1.853,0.926 -2.779,-0 -3.706,-0.927c-1.852,-0.926 -2.779,-1.852 -6.484,0l-1.852,0c-2.779,-2.779 -4.632,-2.779 -9.264,0l-2.779,2.779c-4.631,3.706 -7.41,8.337 -9.263,12.969l-11.116,26.863c-10.189,21.305 -19.452,43.537 -28.716,65.769c-9.263,23.158 -18.526,47.242 -25.936,71.326c-1.853,3.706 -2.779,7.411 -6.485,10.19c-1.852,2.779 -3.705,6.484 -1.852,9.263c0.926,1.853 0.926,2.779 -0,4.632c-0.927,1.852 -0.927,4.631 -1.853,6.484c-2.779,12.042 -6.484,27.79 -9.263,38.905c-0.927,6.485 -1.853,12.969 -2.779,19.453c-0.926,4.632 0.926,7.411 5.558,8.337c1.852,-2.779 1.852,-2.779 3.705,-7.411c0,0 0,-1.852 0.926,-1.852l-0.926,4.631c0,1.853 0,2.779 0.926,3.706c0,0.926 -0.926,1.852 0,1.852c0.927,0.927 2.779,0.927 3.706,0.927c1.852,-0 2.779,-1.853 2.779,-1.853c1.852,-0.926 1.852,-2.779 2.779,-4.632l1.852,2.779c2.779,-1.852 4.632,-2.779 6.484,-5.558c0,-1.852 0.927,-2.779 1.853,-4.631c0.926,0.926 0.926,2.779 1.853,3.705l-0,1.853c1.852,-1.853 1.852,-2.779 1.852,-3.706c0.927,-0.926 1.853,-0.926 2.779,-0.926c0,-0.926 0.927,-1.853 0.927,-1.853l0.926,-2.778c-0,-2.779 0.926,-5.558 0.926,-7.411c0.927,-4.632 1.853,-8.337 2.779,-16.674l4.632,-14.821l4.631,-17.6c1.853,-2.779 2.779,-3.705 5.558,-3.705c4.632,-0.927 11.116,-1.853 16.674,-1.853c8.337,-0.926 16.674,-1.853 25.011,-0.926l3.705,-0l0,36.126l-0.926,51.874c0.926,1.853 0.926,2.779 0.926,3.705l2.779,2.779c-0,0.927 0.926,0.927 2.779,0.927c0.926,-3.706 1.853,-7.411 1.853,-11.116c-0,-3.705 0.926,-6.484 -0,-10.19c0.926,-11.115 -0,-21.305 0.926,-32.421l-0.926,-38.905l-0,-5.558c-0,-0 1.852,-0.927 2.779,-0.927l-0,23.158l0.926,43.538c-0.926,10.189 -0.926,20.379 -0,30.568c-0.926,1.853 -0,2.779 1.852,2.779c0.927,0 1.853,0 2.779,-0.926l3.706,-3.706l-0,-11.115c-0,0.926 0.926,1.852 0.926,2.779c0,0.926 0.926,1.852 0.926,2.778c0,0.927 -0.926,1.853 0,2.779c0,0.927 0,1.853 0.927,1.853c3.705,-2.779 6.484,-6.484 7.41,-12.968c0,1.852 0.927,3.705 0.927,4.631c0.926,1.853 -0,3.705 1.852,4.632c0.927,-1.853 0.927,-1.853 0.927,-2.779c-0,-6.484 0.926,-12.969 -0,-19.453l-0,-27.789l0.926,-25.937l-0,-23.158c-0.926,-10.19 -0.926,-20.379 -0.926,-30.569l0.926,-29.642c-0,-1.853 -0.926,-3.705 -0,-5.558c1.852,2.779 1.852,4.631 0.926,7.41l0,31.495c0,12.969 0.926,25.937 0,38.906c0.926,3.705 0,7.41 0.926,11.116l0,14.821c0,4.631 0,8.337 -0.926,12.968c0.926,9.263 0,18.527 0,28.716l0,12.969c0,0.926 0,1.852 0.926,1.852l0.927,-7.41c0.926,-3.706 -0,-8.337 -0,-12.042Zm-107.453,-80.59c-0,0.926 -0.927,1.852 -0.927,2.779c0,-0 -0.926,0.926 -1.852,0.926c-0.927,-1.853 -0,-2.779 -0,-3.705l9.263,-25.011c-0,-0.926 -0,-1.853 0.926,-2.779l0,-1.853c0.927,-0.926 0,-1.852 1.853,-2.779c0.926,-0.926 -0,-1.852 -0,-2.778c-0,-0.927 1.853,-0.927 0.926,-2.779l0.927,-1.853c1.852,-0 0.926,-0.926 0.926,-1.853c-0.926,-1.852 1.853,-1.852 1.853,-3.705c-0.927,-0.926 -0,-1.853 0.926,-2.779c-0,-0.926 -0,-2.779 0.926,-3.705l5.558,-13.895c-0.926,-1.853 0.926,-3.705 2.779,-5.558c-0.926,-1.853 -0.926,-2.779 0.926,-3.705c0,-1.853 3.706,-10.19 4.632,-12.042c-0,-0.927 -0,-1.853 0.926,-2.779c0,-0.927 0.927,-2.779 1.853,-3.706c-0,-0.926 -0,-1.852 0.926,-2.779c0,-1.852 1.853,-3.705 2.779,-5.557c0,-0.927 0,-2.779 0.926,-2.779c0,-0.927 0,-2.779 1.853,-1.853l0.926,-1.853c-0.926,-0.926 -0.926,-0.926 0,-2.779c0,-0.926 0,-1.852 0.927,-2.779c0.926,-0.926 0.926,-1.852 1.852,-2.779c0,-1.852 0.927,-3.705 2.779,-5.558c0,-0.926 0,-2.778 0.927,-2.778l4.631,-11.116c0,-1.853 0.927,-2.779 1.853,-2.779c-0,-0.927 -0.926,-1.853 -0,-2.779c-0,-1.853 5.558,-12.042 7.41,-14.821c-0.926,-0.927 0,-1.853 0.927,-1.853c-0,-1.853 0.926,-1.853 0.926,-2.779c-0.926,0.926 1.853,-1.853 3.705,-5.558c1.853,0 1.853,0.926 1.853,1.853c0,0.926 -7.411,13.895 -7.411,15.747l-6.484,12.969c-6.484,15.747 -13.895,31.495 -20.379,47.242c-0.926,3.705 -2.779,6.484 -2.779,10.189c0,0 0,0.927 -0.926,1.853c-3.705,6.484 -23.158,57.432 -29.642,76.885Zm68.547,-143.58c-0.926,0.926 -0.926,2.779 -1.852,3.705c-11.116,25.011 -22.232,50.022 -31.495,75.032c-6.484,18.527 -7.411,12.042 -0.926,-2.779l27.789,-65.768c0.926,-1.853 2.779,-3.706 1.853,-5.558c0.926,-0.927 1.852,-1.853 0.926,-2.779l3.705,-4.632c0.927,0.926 0.927,1.853 0,2.779Zm-46.316,138.948c0,0.926 -0.926,2.779 -1.852,3.705l-0,-3.705l17.6,-48.169l27.789,-66.695c0.927,-0.926 0.927,-1.852 2.779,-3.705l0.927,0l-0.927,2.779c-0.926,0.926 -0.926,2.779 -1.852,4.632c-15.748,36.126 -30.569,73.179 -44.464,111.158Zm4.632,3.705c-0.926,0 -1.853,0 -1.853,-0.926c0,-1.853 0.927,-2.779 0.927,-4.632l12.968,-35.2c9.263,-22.231 17.6,-44.463 27.79,-65.768c-0,-1.853 0.926,-2.779 0.926,-4.632c0,-0 0.926,-0 0.926,-0.926c0.927,1.852 0.927,3.705 0,4.631c-1.852,4.632 -3.705,9.263 -5.558,13.895c-9.263,20.379 -16.673,39.832 -25.01,60.211c-2.779,10.189 -7.411,19.453 -10.19,29.642c-0.926,0.926 -0.926,2.779 -0.926,3.705Zm29.642,-1.852c-4.631,-0 -9.263,-0 -13.895,0.926c-3.705,0 -8.336,0.926 -12.968,0.926l-0,-3.705l12.968,-34.274l23.158,-59.284l2.779,-4.632l0.927,0.927c-0,4.631 0.926,10.189 -0,14.821c-0,27.789 1.852,55.579 0.926,83.368c-4.632,1.853 -9.263,0 -13.895,0.927Zm44.464,-4.632l-0,35.2c-0,11.116 -0,23.158 -0.927,34.274l0.927,17.6l-0.927,7.411c0.927,0.926 0,2.779 -0.926,3.705l0.926,-3.705c0,-0.927 -0.926,-0.927 -0.926,-1.853l-0,-32.421c0.926,-9.263 -0,-18.526 -0,-26.863l-0,-44.464c0.926,-5.558 -0,-11.116 0.926,-15.747l0,-24.084c0.927,0.926 0.927,2.778 0,3.705c0.927,0.926 0.927,0.926 0,1.852c0.927,14.822 0.927,30.569 0.927,45.39Zm-10.19,7.411l-1.853,-0c0,-2.779 0,-37.979 1.853,-41.685l0,41.685Zm-10.189,-2.779c-1.853,0.926 -1.853,0.926 -2.779,-0l-0,-3.706l-0.927,2.779l0,-0.926c-0.926,-2.779 0,-5.558 0,-8.337c-0.926,-1.852 0,-2.779 1.853,-3.705c-0.926,-3.705 -0.926,-6.484 -0,-10.19c-0.926,-3.705 -0,-7.41 -0,-12.042l-0,-0.926l0.926,2.779l0,24.084c0.927,2.779 0,5.558 0.927,8.337l-0,1.853Zm9.263,29.642c-0.927,-4.632 -0.927,-9.263 0.926,-14.821l0,1.852c0,9.264 0,17.601 -0.926,26.864c-0,-4.632 -0.927,-9.263 -0,-13.895Zm-75.958,10.189l-3.706,14.822c-2.779,9.263 -2.779,14.821 -4.631,20.379c-0,-7.411 9.263,-44.464 12.968,-50.948c-0.926,5.558 -3.705,10.19 -4.631,15.747Zm-21.306,-9.263c-3.705,10.19 -6.484,24.085 -9.263,34.274c-0,2.779 -1.853,5.558 -1.853,8.337c0,3.705 -1.852,6.484 -1.852,10.19c-0,-0 -0.927,-0 -0.927,0.926c-0.926,-4.632 0,-8.337 0,-12.042c2.779,-6.485 4.632,-18.527 5.558,-25.011c1.853,-5.558 2.779,-10.189 3.706,-14.821c0.926,-1.853 1.852,-2.779 1.852,-4.632l0.927,-0.926c0.926,-0 1.852,0.926 1.852,0.926l0,2.779Z" style="fill-rule:nonzero;"/><path d="M421.371,153.989c-5.558,-12.968 -12.043,-24.084 -22.232,-32.421c-6.484,-4.632 -12.969,-9.263 -20.379,-12.042l-10.19,-2.779l-2.779,-0c-6.484,-0.927 -12.968,-0.927 -19.452,-0c-9.264,0.926 -19.453,3.705 -27.79,7.41c-3.705,0.927 -6.484,1.853 -11.116,3.706c-0.926,-0 -1.852,-0 -2.779,0.926l-5.558,3.705c-5.558,2.779 -10.189,5.558 -12.968,9.263l-6.484,6.485c-2.779,2.779 -2.779,5.558 -0.927,8.336l0,2.779c0,2.779 0.927,4.632 3.706,4.632c0.926,0 1.852,0.926 2.779,0.926c0.926,1.853 2.779,1.853 3.705,1.853c0.926,-0 0.926,0.926 0.926,0.926l0,1.853c3.705,1.853 3.705,1.853 2.779,6.484l0,0.927c-4.631,19.452 -6.484,38.905 -10.189,58.358l-2.779,25.01c-2.779,17.6 -5.558,35.2 -7.411,53.727l-1.853,14.821c0,0.926 -0.926,2.779 -1.852,3.705c-0,-2.779 -3.705,0.927 -6.484,3.706c-0.927,0.926 -0.927,0.926 -1.853,0.926c-0.926,-0 -1.853,0.926 -4.632,1.852c0,0.927 -0.926,1.853 -0.926,3.706c0,2.779 -2.779,9.263 -2.779,12.042c0,-0 0.926,0.926 0.926,1.853c0,3.705 0,5.557 1.853,6.484l3.705,3.705c1.853,0 2.779,0.926 2.779,1.853c0,1.852 0.927,2.779 1.853,2.779c0.926,-0 1.853,0.926 2.779,0.926l-0.926,4.632c-0.927,7.41 -0.927,14.821 -1.853,23.158l0.926,6.484c-0.926,1.852 0,2.779 0.927,3.705c1.852,0.926 2.779,1.853 4.631,0.926c0,-2.779 1.853,-5.558 1.853,-8.336l-0,-10.19c0.926,-6.484 1.852,-12.968 1.852,-19.453c0,-0.926 0.927,-1.852 0.927,-2.779l0.926,-0.926l0.926,0.926l0,2.779c-0.926,12.042 -0.926,24.085 -2.779,35.2c0,0.927 0,1.853 0.927,2.779c-0,0.927 0.926,0.927 1.852,1.853c3.706,0 4.632,-1.853 4.632,-3.705c-0,-1.853 -0,-3.706 0.926,-4.632c0.927,-1.852 0.927,-2.779 0.927,-4.631l0.926,-1.853l0.926,-0c0,2.779 0.927,5.558 0.927,8.337c5.558,-3.705 7.41,-9.263 8.336,-15.748l0.927,10.19c-0,0.926 0.926,1.853 1.852,0.926l0.927,-9.263c0.926,-11.116 1.852,-22.232 2.779,-34.274l0.926,-4.631c0,-0 0.926,-0 1.853,-0.927l-0.927,1.853l0,9.263c-0.926,9.263 -1.852,19.453 -2.779,28.716c0,1.853 0,3.705 0.927,5.558c0.926,-1.853 0.926,-3.705 -0,-4.632l1.852,-14.821c0,-7.41 0.927,-15.747 0.927,-24.084c0.926,-2.779 1.852,-4.632 3.705,-6.484c0.926,-0 1.853,-0.927 2.779,-1.853c4.632,-2.779 8.337,-5.558 12.968,-9.263c7.411,-5.558 14.821,-12.042 23.158,-18.527l25.011,-23.158c5.558,-6.484 12.042,-12.968 17.6,-20.379c7.411,-8.336 13.895,-17.6 20.379,-26.863c5.558,-12.042 12.042,-24.084 14.821,-37.053c4.632,-16.673 3.706,-32.421 -1.852,-47.242Zm-123.201,-20.379c-3.705,1.853 -6.484,4.632 -10.189,6.484c-0,-2.779 0.926,-3.705 1.852,-4.631c2.779,-1.853 5.558,-2.779 7.411,-4.632c0.926,0 0.926,0.926 1.852,0.926l-0.926,1.853Zm91.706,62.063c-4.632,12.043 -12.042,23.158 -19.453,33.348c-10.19,13.895 -22.232,25.937 -33.348,37.053c-5.557,5.558 -11.115,12.042 -16.673,16.673c-3.706,1.853 -5.558,4.632 -9.263,6.485l-0,-4.632c3.705,-30.568 8.336,-61.137 14.821,-91.706l7.41,-40.758l0.927,-7.41c-0,-1.853 0.926,-3.705 3.705,-3.705c5.558,-0.927 10.189,-2.779 14.821,-2.779c10.189,-2.779 19.453,-3.706 26.863,-0c12.042,2.779 19.453,16.673 17.6,27.789c0,10.19 -3.705,20.379 -7.41,29.642Zm-80.59,92.632c-0,0.927 -0,1.853 -1.853,3.706l0,-2.779c1.853,-18.527 4.632,-36.127 7.411,-54.653c1.852,-13.895 4.631,-28.716 6.484,-43.537c1.853,-11.116 3.705,-22.232 6.484,-34.274c0.927,-3.705 1.853,-8.337 2.779,-12.968c0.927,-0 1.853,-0 1.853,0.926c-0,0.926 -0,1.852 -0.926,2.779c-5.558,24.084 -9.264,48.168 -12.969,72.253c-2.779,22.231 -6.484,45.389 -9.263,68.547Zm3.705,-68.547c0,-11.116 8.337,-55.579 12.969,-71.327c-4.632,23.158 -8.337,46.316 -12.969,71.327Zm-9.263,-10.19c0.926,-4.631 1.853,-10.189 2.779,-14.821c0.926,-7.41 1.853,-14.821 3.705,-23.158c0.927,-3.705 0.927,-8.337 2.779,-12.042c0,-1.853 0.927,-3.705 1.853,-4.632c-3.705,17.6 -5.558,36.127 -11.116,54.653Zm-4.632,-29.642l-4.631,37.053c-1.853,12.042 -3.705,24.084 -4.632,35.2l-7.41,56.505c-0,0.927 -0,1.853 -0.927,2.779c0,0.927 0,1.853 -1.852,2.779c-0.927,-3.705 -0.927,-6.484 0.926,-9.263l-0,-4.631c3.705,-28.716 7.411,-56.506 12.042,-85.222l1.853,-16.674l0.926,-11.115c0,-4.632 0.926,-8.337 1.853,-12.043c-0.927,2.779 -0,5.558 -0,8.337c-0,-4.631 1.852,-9.263 2.779,-13.895c-0,-3.705 1.852,-8.336 2.779,-12.968c-0.927,8.337 -1.853,15.747 -3.706,23.158Zm10.19,120.422c2.779,-1.853 4.632,-3.706 5.558,-5.558c2.779,-1.853 5.558,-4.632 7.41,-7.411c1.853,-1.853 5.558,-3.705 8.337,-5.558c2.779,-1.852 4.632,-3.705 6.484,-5.558c3.706,-1.852 5.558,-3.705 7.411,-6.484c0.926,0 0.926,0.926 0.926,0.926l-8.337,8.337c-1.852,2.779 -5.557,5.558 -8.336,8.337c-0,0 -0.927,0 -0.927,0.926c-4.631,5.558 -10.189,9.264 -16.673,13.895c-0,0.927 -0.927,0.927 -0.927,0.927c-0.926,-0.927 -1.852,-1.853 -0.926,-2.779Zm66.695,-25.011c-21.305,24.084 -44.463,43.537 -69.474,62.063c-0.926,0 -0.926,0 -1.853,0.927c0.927,-2.779 1.853,-3.706 3.706,-4.632c4.631,-4.632 11.115,-9.263 17.6,-13.895c16.673,-13.895 33.347,-28.716 49.095,-44.463c-0,-0 0.926,-0 0.926,-0.926c-0,0.926 0.926,0.926 -0,0.926Zm-25.011,5.558c-8.337,8.337 -15.747,14.821 -25.01,22.232c-2.779,2.778 -6.485,5.557 -10.19,8.336c-0.926,0.927 -1.852,1.853 -3.705,1.853c-0.926,1.853 -1.853,1.853 -3.705,2.779c0.926,-0.926 0.926,-1.853 1.852,-2.779c0.927,-0.926 1.853,-1.853 2.779,-3.705c0.927,-0 1.853,-0.927 2.779,-0c0,-0.927 0.926,-1.853 0.926,-1.853c0,-0.926 1.853,-1.853 2.779,-1.853c0,-0.926 0.927,-1.852 0.927,-1.852c0.926,-0.926 1.852,-0.926 1.852,-0c0,-1.853 1.853,-2.779 2.779,-3.705c1.853,-1.853 2.779,-2.779 3.706,-3.706l1.852,0c0.927,0 0.927,-1.852 0.927,-1.852c1.852,-0 3.705,-1.853 4.631,-2.779l12.969,-11.116c0.926,-0 1.852,-0.926 1.852,-1.853c0.927,0.927 0,1.853 0,1.853Zm0,11.116l11.116,-9.264c0,0.927 -0.926,0.927 -0.926,1.853l-16.674,15.748l-34.274,27.789c-1.852,0.926 -2.779,1.853 -4.631,2.779l-0,-0.926c3.705,-3.705 7.41,-6.484 12.042,-9.263c2.779,-2.779 6.484,-6.485 11.116,-9.264c2.779,-2.779 7.41,-6.484 11.115,-9.263c3.706,-3.705 7.411,-6.484 11.116,-10.189Z" style="fill-rule:nonzero;"/></svg>